<mxfile host="65bd71144e">
    <diagram id="qT2VI-kCHz5JzEs_Y-TG" name="PÃ¡gina-1">
        <mxGraphModel dx="822" dy="674" grid="1" gridSize="10" guides="1" tooltips="1" connect="1" arrows="1" fold="1" page="1" pageScale="1" pageWidth="827" pageHeight="1169" math="0" shadow="0">
            <root>
                <mxCell id="0"/>
                <mxCell id="1" parent="0"/>
                <mxCell id="13" style="edgeStyle=none;html=1;exitX=1;exitY=0.5;exitDx=0;exitDy=0;entryX=0;entryY=0.5;entryDx=0;entryDy=0;" edge="1" parent="1" source="2" target="3">
                    <mxGeometry relative="1" as="geometry"/>
                </mxCell>
                <mxCell id="2" value="&lt;font style=&quot;font-size: 15px&quot;&gt;&lt;b&gt;User&lt;br&gt;&lt;br&gt;ID&lt;br&gt;Name&lt;br&gt;Email&lt;br&gt;Password&lt;br&gt;CPF&lt;br&gt;Role&lt;br&gt;Restaurant [ ]&lt;br&gt;Consumer [ ]&lt;br&gt;&lt;/b&gt;&lt;br&gt;&lt;/font&gt;" style="whiteSpace=wrap;html=1;aspect=fixed;horizontal=1;verticalAlign=top;" parent="1" vertex="1">
                    <mxGeometry y="745.5" width="205" height="205" as="geometry"/>
                </mxCell>
                <mxCell id="15" style="edgeStyle=none;html=1;exitX=1;exitY=0.5;exitDx=0;exitDy=0;entryX=0;entryY=0.5;entryDx=0;entryDy=0;" edge="1" parent="1" source="3" target="4">
                    <mxGeometry relative="1" as="geometry"/>
                </mxCell>
                <mxCell id="3" value="&lt;b&gt;Profile&lt;br&gt;&lt;br&gt;ID&lt;br&gt;Name&lt;br&gt;Image&lt;br&gt;Type&lt;br&gt;Adress&lt;br&gt;Menu&lt;br&gt;Restaurant&lt;br&gt;Consumer&lt;/b&gt;" style="whiteSpace=wrap;html=1;aspect=fixed;fontSize=15;verticalAlign=top;" parent="1" vertex="1">
                    <mxGeometry x="270" y="745.5" width="205" height="205" as="geometry"/>
                </mxCell>
                <mxCell id="4" value="&lt;font style=&quot;font-size: 15px&quot;&gt;&lt;b&gt;Menu&lt;br&gt;&lt;br&gt;&lt;br&gt;ID&lt;br&gt;ProfileID&lt;br&gt;Name&lt;br&gt;&lt;span style=&quot;font-family: &amp;#34;arial&amp;#34; , sans-serif&quot;&gt;&lt;font color=&quot;#ffffff&quot; style=&quot;font-size: 15px&quot;&gt;Accompaniment&lt;/font&gt;&lt;/span&gt;&lt;br&gt;&lt;font color=&quot;#ffffff&quot;&gt;Price&lt;/font&gt;&lt;br&gt;&lt;div class=&quot;QmZWSe&quot; style=&quot;display: flex ; position: relative ; width: 48px ; z-index: 1 ; color: rgb(189 , 193 , 198) ; font-family: &amp;#34;arial&amp;#34; , sans-serif ; background-color: rgb(32 , 33 , 36)&quot;&gt;&lt;div class=&quot;DHcWmd&quot; style=&quot;width: 1px ; margin: 0px auto&quot;&gt;&lt;/div&gt;&lt;/div&gt;&lt;div class=&quot;oSioSc&quot; style=&quot;width: 0px ; display: flex ; color: rgb(189 , 193 , 198) ; font-family: &amp;#34;arial&amp;#34; , sans-serif ; background-color: rgb(32 , 33 , 36)&quot;&gt;&lt;div id=&quot;tw-target&quot; style=&quot;margin: 0px ; position: relative ; background-color: rgb(48 , 49 , 52) ; border-radius: 8px ; min-width: 0px ; width: 0px ; display: flex ; flex-direction: column&quot;&gt;&lt;div id=&quot;kAz1tf&quot; class=&quot;g9WsWb&quot; style=&quot;margin: 0px ; position: relative ; padding: 10px 16px 48px&quot;&gt;&lt;div class=&quot;tw-ta-container F0azHf tw-nfl&quot; id=&quot;tw-target-text-container&quot; tabindex=&quot;0&quot; style=&quot;overflow: hidden ; position: relative ; outline: 0px&quot;&gt;&lt;pre class=&quot;tw-data-text tw-text-large tw-ta&quot; id=&quot;tw-target-text&quot; dir=&quot;ltr&quot; style=&quot;line-height: 36px ; background-color: transparent ; border: none ; padding: 2px 0.14em 2px 0px ; position: relative ; margin-top: -2px ; margin-bottom: -2px ; resize: none ; font-family: inherit ; overflow: hidden ; width: 270px ; overflow-wrap: break-word ; color: rgb(232 , 234 , 237)&quot;&gt;&lt;span class=&quot;Y2IQFc&quot; lang=&quot;en&quot;&gt;Ingredients&lt;/span&gt;&lt;/pre&gt;&lt;/div&gt;&lt;/div&gt;&lt;/div&gt;&lt;/div&gt;&lt;div class=&quot;QmZWSe&quot; style=&quot;display: flex ; position: relative ; width: 48px ; z-index: 1 ; color: rgb(189 , 193 , 198) ; font-family: &amp;#34;arial&amp;#34; , sans-serif ; background-color: rgb(32 , 33 , 36)&quot;&gt;&lt;div class=&quot;DHcWmd&quot; style=&quot;width: 1px ; margin: 0px auto&quot;&gt;&lt;/div&gt;&lt;/div&gt;&lt;div class=&quot;oSioSc&quot; style=&quot;width: 0px ; display: flex ; color: rgb(189 , 193 , 198) ; font-family: &amp;#34;arial&amp;#34; , sans-serif ; background-color: rgb(32 , 33 , 36)&quot;&gt;&lt;div id=&quot;tw-target&quot; style=&quot;margin: 0px ; position: relative ; background-color: rgb(48 , 49 , 52) ; border-radius: 8px ; min-width: 0px ; width: 0px ; display: flex ; flex-direction: column&quot;&gt;&lt;div id=&quot;kAz1tf&quot; class=&quot;g9WsWb&quot; style=&quot;margin: 0px ; position: relative ; padding: 10px 16px 48px&quot;&gt;&lt;div class=&quot;tw-ta-container F0azHf tw-nfl&quot; id=&quot;tw-target-text-container&quot; tabindex=&quot;0&quot; style=&quot;overflow: hidden ; position: relative ; outline: 0px&quot;&gt;&lt;pre class=&quot;tw-data-text tw-text-large tw-ta&quot; id=&quot;tw-target-text&quot; dir=&quot;ltr&quot; style=&quot;line-height: 36px ; background-color: transparent ; border: none ; padding: 2px 0.14em 2px 0px ; position: relative ; margin-top: -2px ; margin-bottom: -2px ; resize: none ; font-family: inherit ; overflow: hidden ; width: 270px ; overflow-wrap: break-word ; color: rgb(232 , 234 , 237)&quot;&gt;&lt;span class=&quot;Y2IQFc&quot; lang=&quot;en&quot;&gt;Ingredients&lt;/span&gt;&lt;/pre&gt;&lt;/div&gt;&lt;/div&gt;&lt;/div&gt;&lt;/div&gt;&lt;/b&gt;&lt;/font&gt;" style="rounded=0;whiteSpace=wrap;html=1;verticalAlign=top;" parent="1" vertex="1">
                    <mxGeometry x="560" y="745.5" width="205" height="205" as="geometry"/>
                </mxCell>
            </root>
        </mxGraphModel>
    </diagram>
</mxfile>